<svg xmlns="http://www.w3.org/2000/svg" viewBox="0 0 100 100" width="100" height="100">
  <defs>
    <radialGradient id="centerGrad" cx="35%" cy="35%" r="65%">
      <stop offset="0%" stopColor="#FFF2A8" />
      <stop offset="50%" stopColor="#E5A638" />
      <stop offset="100%" stopColor="#A66814" />
    </radialGradient>
    <linearGradient id="petalGrad" x1="0%" y1="0%" x2="0%" y2="100%">
      <stop offset="0%" stopColor="#FFFFFF" />
      <stop offset="100%" stopColor="#F7EBE1" />
    </linearGradient>
    <linearGradient id="petalGradBack" x1="0%" y1="0%" x2="0%" y2="100%">
      <stop offset="0%" stopColor="#F0D5C3" />
      <stop offset="100%" stopColor="#D9AA8F" />
    </linearGradient>
  </defs>

  {/* Soft cream background circle with a gold border */}
  <circle cx="50" cy="50" r="46" fill="#FAF7F2" stroke="#B87B57" stroke-width="2.5" />

  {/* Group of petals rotated around (50, 50) */}
  <g>
    {/* Background Petals */}
    <g opacity="0.95">
      <path d="M 50 50 C 48 50, 45 37, 48 22 C 49 15, 51 15, 52 22 C 55 37, 52 50, 50 50 Z" fill="url(#petalGradBack)" stroke="#B87B57" stroke-width="1.1" transform="rotate(18, 50, 50)" />
      <path d="M 50 50 C 48 50, 45 37, 48 22 C 49 15, 51 15, 52 22 C 55 37, 52 50, 50 50 Z" fill="url(#petalGradBack)" stroke="#B87B57" stroke-width="1.1" transform="rotate(52, 50, 50)" />
      <path d="M 50 50 C 48 50, 45 37, 48 22 C 49 15, 51 15, 52 22 C 55 37, 52 50, 50 50 Z" fill="url(#petalGradBack)" stroke="#B87B57" stroke-width="1.1" transform="rotate(85, 50, 50)" />
      <path d="M 50 50 C 48 50, 45 37, 48 22 C 49 15, 51 15, 52 22 C 55 37, 52 50, 50 50 Z" fill="url(#petalGradBack)" stroke="#B87B57" stroke-width="1.1" transform="rotate(120, 50, 50)" />
      <path d="M 50 50 C 48 50, 45 37, 48 22 C 49 15, 51 15, 52 22 C 55 37, 52 50, 50 50 Z" fill="url(#petalGradBack)" stroke="#B87B57" stroke-width="1.1" transform="rotate(155, 50, 50)" />
      <path d="M 50 50 C 48 50, 45 37, 48 22 C 49 15, 51 15, 52 22 C 55 37, 52 50, 50 50 Z" fill="url(#petalGradBack)" stroke="#B87B57" stroke-width="1.1" transform="rotate(188, 50, 50)" />
      <path d="M 50 50 C 48 50, 45 37, 48 22 C 49 15, 51 15, 52 22 C 55 37, 52 50, 50 50 Z" fill="url(#petalGradBack)" stroke="#B87B57" stroke-width="1.1" transform="rotate(222, 50, 50)" />
      <path d="M 50 50 C 48 50, 45 37, 48 22 C 49 15, 51 15, 52 22 C 55 37, 52 50, 50 50 Z" fill="url(#petalGradBack)" stroke="#B87B57" stroke-width="1.1" transform="rotate(254, 50, 50)" />
      <path d="M 50 50 C 48 50, 45 37, 48 22 C 49 15, 51 15, 52 22 C 55 37, 52 50, 50 50 Z" fill="url(#petalGradBack)" stroke="#B87B57" stroke-width="1.1" transform="rotate(288, 50, 50)" />
      <path d="M 50 50 C 48 50, 45 37, 48 22 C 49 15, 51 15, 52 22 C 55 37, 52 50, 50 50 Z" fill="url(#petalGradBack)" stroke="#B87B57" stroke-width="1.1" transform="rotate(320, 50, 50)" />
      <path d="M 50 50 C 48 50, 45 37, 48 22 C 49 15, 51 15, 52 22 C 55 37, 52 50, 50 50 Z" fill="url(#petalGradBack)" stroke="#B87B57" stroke-width="1.1" transform="rotate(352, 50, 50)" />
    </g>

    {/* Foreground Petals */}
    <g>
      <path d="M 50 50 C 47 50, 44 34, 47 17 C 49 10, 51 10, 53 17 C 56 34, 53 50, 50 50 Z" fill="url(#petalGrad)" stroke="#9E6840" stroke-width="1.2" transform="rotate(0, 50, 50)" />
      <path d="M 50 50 C 47 50, 44 34, 47 17 C 49 10, 51 10, 53 17 C 56 34, 53 50, 50 50 Z" fill="url(#petalGrad)" stroke="#9E6840" stroke-width="1.2" transform="rotate(35, 50, 50)" />
      <path d="M 50 50 C 47 50, 44 34, 47 17 C 49 10, 51 10, 53 17 C 56 34, 53 50, 50 50 Z" fill="url(#petalGrad)" stroke="#9E6840" stroke-width="1.2" transform="rotate(68, 50, 50)" />
      <path d="M 50 50 C 47 50, 44 34, 47 17 C 49 10, 51 10, 53 17 C 56 34, 53 50, 50 50 Z" fill="url(#petalGrad)" stroke="#9E6840" stroke-width="1.2" transform="rotate(102, 50, 50)" />
      <path d="M 50 50 C 47 50, 44 34, 47 17 C 49 10, 51 10, 53 17 C 56 34, 53 50, 50 50 Z" fill="url(#petalGrad)" stroke="#9E6840" stroke-width="1.2" transform="rotate(138, 50, 50)" />
      <path d="M 50 50 C 47 50, 44 34, 47 17 C 49 10, 51 10, 53 17 C 56 34, 53 50, 50 50 Z" fill="url(#petalGrad)" stroke="#9E6840" stroke-width="1.2" transform="rotate(170, 50, 50)" />
      <path d="M 50 50 C 47 50, 44 34, 47 17 C 49 10, 51 10, 53 17 C 56 34, 53 50, 50 50 Z" fill="url(#petalGrad)" stroke="#9E6840" stroke-width="1.2" transform="rotate(204, 50, 50)" />
      <path d="M 50 50 C 47 50, 44 34, 47 17 C 49 10, 51 10, 53 17 C 56 34, 53 50, 50 50 Z" fill="url(#petalGrad)" stroke="#9E6840" stroke-width="1.2" transform="rotate(238, 50, 50)" />
      <path d="M 50 50 C 47 50, 44 34, 47 17 C 49 10, 51 10, 53 17 C 56 34, 53 50, 50 50 Z" fill="url(#petalGrad)" stroke="#9E6840" stroke-width="1.2" transform="rotate(272, 50, 50)" />
      <path d="M 50 50 C 47 50, 44 34, 47 17 C 49 10, 51 10, 53 17 C 56 34, 53 50, 50 50 Z" fill="url(#petalGrad)" stroke="#9E6840" stroke-width="1.2" transform="rotate(305, 50, 50)" />
      <path d="M 50 50 C 47 50, 44 34, 47 17 C 49 10, 51 10, 53 17 C 56 34, 53 50, 50 50 Z" fill="url(#petalGrad)" stroke="#9E6840" stroke-width="1.2" transform="rotate(338, 50, 50)" />
    </g>
  </g>

  {/* Center Golden/Yellow Disc */}
  <circle cx="50" cy="50" r="9" fill="url(#centerGrad)" stroke="#8C550A" stroke-width="1.2" />
  
  {/* Detailed artistic dots for texture/pollen */}
  <circle cx="48" cy="47" r="1.3" fill="#FFFFFF" opacity="0.9" />
  <circle cx="51" cy="46" r="0.9" fill="#FFF2A8" opacity="0.8" />
  <circle cx="46" cy="50" r="0.9" fill="#7A4807" opacity="0.5" />
  <circle cx="52" cy="52" r="0.7" fill="#7A4807" opacity="0.6" />
  <circle cx="49" cy="54" r="0.8" fill="#7A4807" opacity="0.4" />
</svg>
